<?xml version="1.0" encoding="utf-8"?>
<!-- Generator: Adobe Illustrator 16.0.0, SVG Export Plug-In . SVG Version: 6.00 Build 0)  -->
<!DOCTYPE svg PUBLIC "-//W3C//DTD SVG 1.1//EN" "http://www.w3.org/Graphics/SVG/1.1/DTD/svg11.dtd">
<svg version="1.1" id="Layer_1" xmlns="http://www.w3.org/2000/svg" xmlns:xlink="http://www.w3.org/1999/xlink" x="0px" y="0px"
	 width="480px" height="640px" viewBox="0 0 480 640" enable-background="new 0 0 480 640" xml:space="preserve">
<g id="Layer_7">
	<path fill="#DDDDDD" d="M356.578,381.081l-45.075,0.001l-4.49-20.793l-23.66,6.695H230.16l-25.732-7.4l-5.527,21.5l-42.322,0.002
		l14.517-50.048c0,0-7.098-13.945-7.755-19.06c-3.644-28.34,6.545-62.348,6.545-62.348s-18.997-15.33-11.225-37.356
		c7.476-21.188,48.703-14.978,48.703-14.978s24.006-16.211,46.629-16.211c29.014,0,51.119,16.387,51.119,16.387
		s40.587-6.344,48.661,12.482c8.607,20.065-10.32,40.204-10.32,40.204s8.98,39.999,6.217,59.735
		c-0.768,5.482-7.944,20.616-7.944,20.616L356.578,381.081z"/>
	<path fill="#F9F9F9" d="M301.141,330.333c0,0-3.281,45.284-43.176,45.284c-41.967,0-46.111-42.465-46.111-42.465l11.743-49.338
		l-30.223-42.097c0,0,13.471-19.927,31.431-20.633c19.062-0.75,32.037,11.453,32.037,11.453s10.945-11.42,28.065-11.452
		c24.179-0.044,35.403,22.73,35.403,22.73l-30.395,39.823L301.141,330.333z"/>
	<path fill="#AAAAAA" d="M257.793,367.69c-15.286,0-26.732-15.984-30.979-23.37c-1.126-1.96-1.067-2.74-0.661-3.568
		c0.219-0.444,0.445-0.947,1.934-1.256h56.626c0,0,1.1,0,1.877,0.991c0.588,0.75,0.817,2.157-0.196,3.833
		C282.121,351.38,270.496,367.69,257.793,367.69z"/>
	<path fill="#AAAAAA" d="M251.132,323.29c-2.169,0-2.991-1.905-3.012-2.516c-0.08-2.291-0.023-9.692,0-13.128
		c0.004-0.361,0.616-1.784,2.64-1.784c2.332,0,2.98,1.318,2.984,1.784c0.033,3.518,0.092,10.819,0,12.995
		C253.717,321.295,252.995,323.29,251.132,323.29z"/>
	<path fill="#AAAAAA" d="M262.308,323.29c-2.169,0-2.989-1.905-3.011-2.516c-0.081-2.291-0.024-9.692,0-13.128
		c0.003-0.361,0.614-1.784,2.64-1.784c2.331,0,2.98,1.318,2.984,1.784c0.032,3.518,0.091,10.819,0,12.995
		C264.893,321.295,264.171,323.29,262.308,323.29z"/>
	<path fill="#DDDDDD" d="M217.138,310.949c3.868,0.002,10.776-0.175,21.657-5.766c7.747-3.981,21.969-16.766,25.56-24.894
		c6.065-13.721-0.19-27.752-5.101-33.479c-5.458-6.364-18.632-12.884-36.693-6.52c-7.043,2.482-21.623,11.961-21.623,11.961
		S193.265,310.937,217.138,310.949z"/>
	<path fill="#F9F9F9" d="M199.388,302.619c7.038,5.035,26.41,2.26,34.368-1.058c8.005-3.337,23.017-14.452,26.598-22.554
		c6.043-13.678,0.316-22.31-4.578-28.018c-5.44-6.344-13.859-12.687-31.864-6.343c-7.021,2.474-24.495,14.323-24.495,14.323
		s-9.565-20.479-19.234-14.84C170.75,249.63,178.521,287.691,199.388,302.619z"/>
	
		<line fill="none" stroke="#DDDDDD" stroke-width="5" stroke-miterlimit="10" x1="249.503" y1="242.017" x2="215.307" y2="262.846"/>
	<ellipse fill="#DDDDDD" cx="215.307" cy="262.846" rx="2.59" ry="2.643"/>
	
		<line fill="none" stroke="#DDDDDD" stroke-width="5" stroke-miterlimit="10" x1="260.577" y1="257.613" x2="226.382" y2="278.442"/>
	<ellipse fill="#DDDDDD" cx="226.382" cy="278.442" rx="2.591" ry="2.643"/>
	<path fill="#DDDDDD" d="M299.222,310.328c-3.87,0.002-10.777-0.175-21.658-5.766c-7.746-3.98-21.968-16.765-25.559-24.893
		c-6.066-13.722,0.189-27.753,5.101-33.48c5.457-6.364,18.631-12.885,36.692-6.52c7.042,2.481,21.622,11.961,21.622,11.961
		S323.095,310.315,299.222,310.328z"/>
	<path fill="#F9F9F9" d="M316.972,301.997c-7.038,5.035-26.411,2.26-34.368-1.057c-8.006-3.337-23.018-14.453-26.598-22.555
		c-6.043-13.679-0.317-22.31,4.578-28.018c5.439-6.344,13.859-12.687,31.863-6.342c7.02,2.474,24.495,14.324,24.495,14.324
		s9.564-20.48,19.234-14.841C345.608,249.009,337.836,287.069,316.972,301.997z"/>
	
		<line fill="none" stroke="#DDDDDD" stroke-width="5" stroke-miterlimit="10" x1="266.855" y1="241.395" x2="301.051" y2="262.224"/>
	<ellipse fill="#DDDDDD" cx="301.051" cy="262.224" rx="2.591" ry="2.643"/>
	
		<line fill="none" stroke="#DDDDDD" stroke-width="5" stroke-miterlimit="10" x1="255.781" y1="256.992" x2="289.977" y2="277.822"/>
	<ellipse fill="#DDDDDD" cx="289.977" cy="277.822" rx="2.591" ry="2.643"/>
</g>
</svg>
