<?xml version="1.0" encoding="utf-8"?>
<!-- Generator: Adobe Illustrator 16.0.0, SVG Export Plug-In . SVG Version: 6.00 Build 0)  -->
<!DOCTYPE svg PUBLIC "-//W3C//DTD SVG 1.1//EN" "http://www.w3.org/Graphics/SVG/1.1/DTD/svg11.dtd">
<svg version="1.1" id="Layer_1" xmlns="http://www.w3.org/2000/svg" xmlns:xlink="http://www.w3.org/1999/xlink" x="0px" y="0px"
	 width="480px" height="640px" viewBox="0 0 480 640" enable-background="new 0 0 480 640" xml:space="preserve">
<g id="Layer_5">
	<path fill="rgba(251,95,132,0.5)" d="M348.714,374.625c0,0-22.715-30.152-63.823-40.695c-29.479-7.561-64.223-1.938-64.223-1.938
		s1.549-1.947,4.371-4.102c1.884-1.439,5.562-2.332,5.758-4.14c0.693-6.447-11.639-5.183-13.897-28.625
		c-2.778-28.83,24.543-39.526,24.543-39.526s6.216-10.736,1.761-24.589c-1.028-3.199-4.053-5.438-5.744-6.032
		c-4.429-1.55-7.965,2.155-7.965,2.155s0.335-4.952,5.285-7.032c0,0,1.526-3.742,3.834-5.67c2.217-1.853,5.955-2.949,5.955-2.949
		s-0.975-8.588-0.297-11.341c0.707-2.873,2.271-4.508,2.271-4.508l2.01-0.255c-4.02,6.011-2.53,11.681-2.53,11.681
		s0.41-8.127,4.131-12.248l3.687,0.038c-4.839,4.083-5.137,12.551-5.137,12.551s3.312-10.018,7.63-12.777l5.546,2.003
		c-11.055,3.553-11.499,11.991-10.633,16.936c1.626,9.3,5.511,18.758,6.151,31.251c0.498,9.678-3.969,18.951-3.969,18.951
		s-26.401,2.824-21.438,33.569c3.448,21.359,37.817,23.288,37.817,23.288s-9.953-11.431-12.209-15.924
		c-7.345-14.616-2.979-32.54-2.979-32.54s4.127,34.479,34.243,49.673C343.523,349.41,348.714,374.625,348.714,374.625z"/>
	<path fill="rgba(137,9,120,0.6)" d="M217.397,307.241c0,0-0.396-0.476-9.578,5.623c-9.835,6.532-15.782,13.759-32.605,13.759
		c-4.564,0-9.927-7.059-9.927-7.059s7.638,2.065,13.549,1.815c9.431-0.4,21.384-8.315,30.324-12.345
		C213.512,307.073,217.397,307.241,217.397,307.241z"/>
	<path fill="rgba(137,9,120,0.6)" d="M214.024,299c0,0-5.29,0.659-10.622,2.419c-5.346,1.764-15.912,6.937-26.45,7.36
		c-14.36,0.581-18.065-11.745-18.065-11.745s7.096,5.883,18.163,5.948c11.25,0.066,22.211-3.576,25.261-3.982
		C210.22,297.948,214.024,299,214.024,299z"/>
	<path fill="rgba(137,9,120,0.6)" d="M179.134,290.633c-15.582,0.805-20.048-15.878-20.048-15.878s7.542,8.972,20.383,10.655
		c4.143,0.544,17.887,0.439,25.175,1.088c7.179,0.638,8.089,3.176,8.089,3.176s-3.771-1.059-9.629-0.96
		C193.725,288.873,188.658,290.141,179.134,290.633z"/>
	<path fill="rgba(137,9,120,0.6)" d="M181.069,268.242c-12.406-5.493-16.128-13.961-16.128-13.961s-1.835,15.371,14.639,19.253
		c9.538,2.245,20.9,3.043,25.162,3.629c4.341,0.599,9.231,1.713,9.231,1.713s-4.979-2.882-6.849-3.576
		C195.562,271.003,195.692,274.718,181.069,268.242z"/>
	<path fill="rgba(137,9,120,0.6)" d="M218.439,270.158c0,0-4.574-2.656-11.215-5.949c-8.896-4.411-21.588-8.265-27.99-21.472
		c-2.964-6.113,0.793-11.947,0.793-11.947s4.071,14.116,13.995,20.919C217.157,267.573,218.439,270.158,218.439,270.158z"/>
	<path fill="rgba(137,9,120,0.6)" d="M227.025,262.443c0,0-6.088-5.687-13.299-13.36c-6.516-6.931-16.368-15.19-15.856-25.352
		c0.397-7.915,3.945-10.334,3.945-10.334s-1.042,4.99,3.82,17.394c1.612,4.114,14.144,18.464,18.611,24.949
		C225.455,257.494,227.025,262.443,227.025,262.443z"/>
	<path fill="rgba(137,9,120,0.6)" d="M236.356,256.145c0,0-8.402-12.998-5.11-8.362c0.591,0.834-14.426-18.278-15.785-30.301
		c-0.998-8.832,6.651-13.409,6.651-13.409s-3.21,8.3-0.397,16.988c3.773,11.652,10.431,19.858,12.855,26.923
		C235.247,249.958,236.356,256.145,236.356,256.145z"/>
	<path fill="rgba(137,9,120,0.6)" d="M352.131,357.324c0,0-9.136-20.916-34.635-30.998c-7.302-2.887-22.402-7.623-29.189-11.596
		c-2.83-1.655-10.221-8.265-10.221-8.265s3.62,2.474,13.742,4.334c22.48,4.132,34.29,8.342,44.472,15.477
		C350.451,336.188,352.131,357.324,352.131,357.324z"/>
	<path fill="rgba(137,9,120,0.6)" d="M358.887,328.037c0,0-16.871-17.019-35.633-21.475c-18.462-4.385-24.318-3.576-34.89-5.24
		c-7.272-1.144-12.259-5.193-12.259-5.193s36.676-0.01,43.772,0.505c1.833,0.133,12.108,1.007,23.772,9.778
		C352.875,313.346,358.887,328.037,358.887,328.037z"/>
	<path fill="rgba(137,9,120,0.6)" d="M327.818,283.571c-21.456-1.365-33.549,4.382-45.905,4.133c-2.666-0.055-8.437-1.262-8.437-1.262
		c0,0.002,4.467-0.699,10.568-2.496c11.676-3.439,30.375-9.239,42.436-10.308c18.161-1.609,29.576,20.716,29.576,20.716
		S350.051,284.986,327.818,283.571z"/>
	<path fill="rgba(137,9,120,0.6)" d="M320.923,259.429c-11.565,1.768-25.457,10.842-36.774,14.617c-10.687,3.562-14.989,2.672-14.989,2.672
		s0.805,0.161,9.778-5.041c13.266-7.688,37.438-22.214,46.751-22.43c21.686-0.503,26.553,13.054,26.553,13.054
		S341.379,256.302,320.923,259.429z"/>
	<path fill="rgba(137,9,120,0.6)" d="M323.105,235.582c-12.293,3.985-33.366,20.886-46.403,29.64c-7.905,5.309-11.913,4.739-11.913,4.739
		s1.88-0.35,9.084-7.159c12.499-11.815,34.684-33.304,45.31-35.938c14.444-3.58,25.214,6.502,25.214,6.502
		S333.246,232.295,323.105,235.582z"/>
	<path fill="rgba(137,9,120,0.6)" d="M309.557,214.32c-19.802,10.131-30.16,31.53-41.688,43.096c-2.309,2.316-7.639,4.385-7.639,4.385
		s2.369-1.698,6.742-8.566c8.402-13.201,22.735-36.682,31.572-42.146c14.584-9.016,25.152-0.931,25.152-0.931
		S312.844,212.638,309.557,214.32z"/>
	<path fill="rgba(137,9,120,0.6)" d="M275.369,215.924c-5.706,9.328-4.812,18.904-10.322,31.103c-4.013,8.888-6.701,10.885-6.701,10.885
		s-0.892,3.832,4.021-18.547c2.208-10.056,4.671-24.021,7.64-28.934c10.474-17.339,22.931-12.853,22.931-12.853
		S284.316,201.296,275.369,215.924z"/>
</g>
<text transform="matrix(1 0 0 1 125 375)" fill="rgba(137,9,120,0.8)" font-family="'BOP'" font-size="24">New Posts Coming Soon </text>
</svg>
