<?xml version="1.0" encoding="utf-8"?>
<!-- Generator: Adobe Illustrator 16.0.0, SVG Export Plug-In . SVG Version: 6.00 Build 0)  -->
<!DOCTYPE svg PUBLIC "-//W3C//DTD SVG 1.1//EN" "http://www.w3.org/Graphics/SVG/1.1/DTD/svg11.dtd">
<svg version="1.1" id="Layer_1" xmlns="http://www.w3.org/2000/svg" xmlns:xlink="http://www.w3.org/1999/xlink" x="0px" y="0px"
	 width="480px" height="640px" viewBox="0 0 480 640" enable-background="new 0 0 480 640" xml:space="preserve">
<g id="Layer_4" opacity="0.3">
	<path fill="#890978" d="M280.314,354.676c0,0,2.414,46.331-49.809,51.732c-50.987,5.274-55.102-47.805-55.102-47.805
		s7.25,40.476,47.806,38.302c30.938-1.658,45.842-30.878,45.667-43.856c-0.658-48.499-35.052-61.432-37.685-57.618
		c-2.693,3.901,5.513,9.534,9.38,24.208c2.759,10.468-0.823,26.529-0.823,26.529s2.983-12.785-4.032-27.192
		c-8.557-17.576-21.805-14.177-23.861-35.4c-1.016-10.482,14.011-29.856,14.728-37.722c0.658-7.213-2.633-11.358-2.633-11.358
		s0.811,9.239,0.33,12.27c-0.5,3.153-4.097,11.591-4.097,11.591s1.625-7.736,1.711-10.513c0.247-7.959-2.221-11.275-2.221-11.275
		s-2.164,4.7-3.896,5.539c-1.02,0.495-5.32,0.513-5.32,0.513s-1.848,0.959-2.386,1.492c-1.13,1.122-3.949,5.638-3.949,5.638
		s1.17-5.632,1.974-7.213c0.629-1.233,3.181-4.531,3.181-4.531s0.121-3.046,1.509-4.837c5.465-7.047,29.595-26.392,29.595-26.392
		l-3.292,9.729c0,0-8.53,0.166-13.549,9.037c-0.531,0.938,5.928,11.534,6.006,15.752c0.411,22.301-11.602,28.021-11.52,42.53
		c0.018,3.262,3.226,10.795,3.226,10.795s-1.58-9.055,0.065-14.277c2.839-9.011,10.252-16.482,10.252-16.482l0,0
		c0,0-2.023,5.456,4.203,14.545C235.772,278.404,282.729,319.524,280.314,354.676z"/>
	<path fill="#890978" d="M238.762,303.804c0,0,12.589,14.591,11.931,32c-0.786,20.814-11.334,39.916-33.735,42.146
		c-16.358,1.627-24.602-13.957-24.602-13.957s13.632,12.573,28.247,7.608c23.274-7.903,26.47-36.377,25.565-44.916
		C244.783,313.639,238.762,303.804,238.762,303.804z"/>
	<path fill="#890978" d="M257.357,364.324c0,0-12.181,25.832-39.167,26.943c-23.923,0.984-35.052-28.188-35.052-28.188
		s11.99,19.67,35.299,20.146c24.272,0.498,35.875-31.172,35.875-31.172c7.977-36.312-15.47-52.728-15.47-52.728
		S275.213,326.604,257.357,364.324z"/>
</g>
<text transform="matrix(1 0 0 1 145.5 334.5)" opacity="0.5" fill="#890978" font-family="'BOP'" font-size="21">No Posts at this Time</text>
</svg>
