<?xml version="1.0" encoding="utf-8"?>
<!-- Generator: Adobe Illustrator 16.0.0, SVG Export Plug-In . SVG Version: 6.00 Build 0)  -->
<!DOCTYPE svg PUBLIC "-//W3C//DTD SVG 1.1//EN" "http://www.w3.org/Graphics/SVG/1.1/DTD/svg11.dtd">
<svg version="1.1" id="Layer_1" xmlns="http://www.w3.org/2000/svg" xmlns:xlink="http://www.w3.org/1999/xlink" x="0px" y="0px"
	 width="480px" height="640px" viewBox="0 0 480 640" enable-background="new 0 0 480 640" xml:space="preserve">
<g id="Layer_2" opacity="0.5">
	<path fill="#E12E73" d="M348.586,295.648c0,0-64.912-20.364-88.354-15.272c-7.412,1.61,4.688,17.455,4.688,17.455
		s-16.643-13.91-22-10.909c-2.376,1.33-1.08,10.909-1.08,10.909s-9-18.305-10.096-25.091c-2.209-13.682,3.966-22.546,3.966-22.546
		s-6.581,27.272,7.483,15.068c6.724-5.833,7.084-20.139,4.326-24.818c-2.035-3.456-6.761,1.773-6.761,1.773
		s4.287-8.723,1.437-14.412c-2.923-5.838-10.632-0.111-10.632-0.111s1.275-3.088,2.582-5.557c0.59-1.114,0.326-1.466,1.036-2.352
		c1.608-2.007,6.029-3.096,7.54-4.432c1.366-1.21,3.989-6.137,3.989-6.137l1.72-0.103l-2.396,4.159l3.462-4.141l3.334-0.019
		l-5.071,4.296l5.85-3.682l3.076,1.841c0,0-10.215,2.956-12.205,8.352c-1.082,2.932,8.385,12.614,8.521,23.796
		c0.067,5.715-1.368,14.677-1.082,20.659c0.081,1.677,0.541,4.909,3.246,6.955c3.825,2.893,8.249,2.25,8.249,2.25l73.837-6.204
		c0,0-0.202-7.18-8.385-9.069c-19.202-4.431-63.308,9.003-63.308,9.003s24.221-8.388,32.435-10.716
		c9.507-2.694,38.445-9.127,38.445-9.127s-1.354-11.027-15.618-11.796c-16.433-0.886-53.418,20.796-53.418,20.796
		s19.591-12.908,26.384-16.765c8.181-4.644,33.593-16.917,33.593-16.917s-4.732-10.364-18.121-9
		c-13.883,1.414-43.07,35.795-43.07,35.795l13.621-19.017l27.691-30.415c0,0-9.196-7.637-18.46-3.818
		c-15.021,6.192-27.724,34.364-27.724,34.364s7.32-17.768,10.481-23.318c2.938-5.164,13.658-19.432,13.658-19.432
		s-9.827-2.59-13.187-2.59c-14.421,0-17.513,20.522-17.513,20.522s0.99-9.96,1.804-13.186c0.652-2.589,3.495-9.4,3.495-9.4
		s-2.188-1.618-12.812-1.273c-7.089,0.23-10.608,1.428-10.608,1.428s2.299,5.318,2.976,9.477c0.654,4.032,1.487,12.341,1.487,12.341
		s-5.469-18.942-14.943-19.091c-8.655-0.137-12.751,3.989-12.751,3.989s7.113,10.307,9.033,14.01
		c2.333,4.499,9.151,22.651,7.763,18.735c-3.103-8.754-8.34-17.67-17.162-23.712c-10.751-7.363-17.243-1.84-21.637,1.637
		c-0.163,0.129,11.876,10.741,16.652,16.357c11.889,13.979,24.126,31.336,23.604,30.753c-5.777-6.442-18.478-20.323-24.504-24.676
		c-4.651-3.36-10.749-9.479-20.586-10.085c-11.613-0.715-16.262,8.241-16.262,8.241s23.929,11.379,31.704,15.571
		c7.102,3.829,28.069,16.542,26.794,18.027c-0.292,0.341-25.501-21.462-54.837-20.855c-4.06,0.084-17.59,3.666-14.186,13.199
		c0,0,30.11,6.656,39.796,10.058c12.297,4.319,27.124,9.904,27.124,9.904s-52.609-17.813-64.916-7.676
		c-3.169,2.61-3.967,9.454-3.967,9.454s29.685,2.632,39.579,3.873c7.506,0.94,30.022,4.854,30.022,4.854s-20.525,3.019-27.408,3.637
		c-16.182,1.454-44.356,9.454-44.356,9.454c-0.001,0,9.367-4.831,18.393-7.992c7.013-2.455,13.819-3.034,15.866-5.1
		c2.749-2.773-40.029-3.272-40.029-3.272s2.164-96.727,102.055-96.727c95.926,0,97.944,100.016,97.944,100.016l-47.097-0.38
		l22.831,9.064L348.586,295.648z"/>
</g>
<text transform="matrix(1 0 0 1 127 315)" opacity="0.5" fill="#E12E73" font-family="'BOP'" font-size="21">No Tags at the Moment</text>
</svg>
